<?xml version="1.0" encoding="UTF-8"?>
<svg xmlns="http://www.w3.org/2000/svg" viewBox="0 0 144 112">
	<metadata xmlns:xsi="http://www.w3.org/2001/XMLSchema-instance" xmlns:dc="http://purl.org/dc/elements/1.1/">
		<dc:title>Lotosblume</dc:title>
		<dc:creator>Denis Giffeler</dc:creator>
		<dc:description>SVG animation of an opening and closing lotus flower</dc:description>
		<dc:date>2020-05-07</dc:date>
	</metadata>
	<title>Lotosblume</title>
	<g fill="white" stroke="black" stroke-width="6" stroke-linejoin="round">
		<path d="M 72 104 A 50 50 0 0 1 72 24 A 50 50 0 0 1 72 104 Z" transform="rotate(-60 72 104)">
			<animateTransform id="l1a" begin="1s;l1b.end+1s" fill="freeze" attributeName="transform" type="rotate" from="-60 72 104" to="0 72 104" dur="1s"/>
			<animateTransform id="l1b" begin="l1a.end" fill="freeze" attributeName="transform" type="rotate" from="0 72 104" to="-60 72 104" dur="1s"/>
		</path>
		<path d="M 72 104 A 50 50 0 0 1 72 24 A 50 50 0 0 1 72 104 Z" transform="rotate(60 72 104)">
			<animateTransform id="l2a" begin="1s;l2b.end+1s" fill="freeze" attributeName="transform" type="rotate" from="60 72 104" to="0 72 104" dur="1s"/>
			<animateTransform id="l2b" begin="l2a.end" fill="freeze" attributeName="transform" type="rotate" from="0 72 104" to="60 72 104" dur="1s"/>
		</path>
		<path d="M 72 104 A 55 55 0 0 1 72 14 A 55 55 0 0 1 72 104 Z" transform="rotate(-30 72 104)">
			<animateTransform id="l3a" begin="1s;l3b.end+1s" fill="freeze" attributeName="transform" type="rotate" from="-30 72 104" to="0 72 104" dur="1s"/>
			<animateTransform id="l3b" begin="l3a.end" fill="freeze" attributeName="transform" type="rotate" from="0 72 104" to="-30 72 104" dur="1s"/>
		</path>
		<path d="M 72 104 A 55 55 0 0 1 72 14 A 55 55 0 0 1 72 104 Z" transform="rotate(30 72 104)">
			<animateTransform id="l4a" begin="1s;l4b.end+1s" fill="freeze" attributeName="transform" type="rotate" from="30 72 104" to="0 72 104" dur="1s"/>
			<animateTransform id="l4b" begin="l4a.end" fill="freeze" attributeName="transform" type="rotate" from="0 72 104" to="30 72 104" dur="1s"/>
		</path>
		<path d="M 72 104 A 60 60 0 0 1 72 4 A 60 60 0 0 1 72 104 Z"/>
	</g>
</svg>
