<svg id="Gradient" height="512" viewBox="0 0 512 512" width="512" xmlns="http://www.w3.org/2000/svg" xmlns:xlink="http://www.w3.org/1999/xlink"><linearGradient id="linear-gradient" gradientUnits="userSpaceOnUse" x1="255.543" x2="255.543" y1="480" y2="31.996"><stop offset="0" stop-color="#12c2e9"/><stop offset=".5" stop-color="#c471ed"/><stop offset="1" stop-color="#f64f59"/></linearGradient><path d="m181.424 215.177a26.27 26.27 0 0 0 4.268-16.354c-.971-11.858-9.97-20.943-16.089-25.815a97.634 97.634 0 0 0 3.091-11.97c2.716-14.377 1.233-26-4.4-34.553-6.342-9.612-17.206-14.485-32.294-14.485-42.457 0-64.12 52.507-74.6 93.976l-6.078-9.4a32.087 32.087 0 0 1 6.378-30.957 8 8 0 0 0 -11.352-11.276 48.15 48.15 0 0 0 -12.478 35.735 10.8 10.8 0 0 1 -3.76-2.973c-4.062-5.151-3.069-14.152-2.341-17.195a8 8 0 0 0 -15.53-3.85c-.468 1.873-4.3 18.649 5.229 30.851 5 6.4 12.4 10.054 22.055 10.9l32.955 50.929.49.761.017.023 52.3 80.826a8 8 0 0 0 13.432-8.694l-12.592-19.461 30.264 9.078a40.536 40.536 0 0 0 11.666 1.722 39.64 39.64 0 0 0 34.6-20.265c9.645-17.08 12.792-33.908 9.1-48.665-2.487-9.985-10.255-27.219-34.331-38.888zm-90.257-46.819c12.502-26.78 27.586-40.358 44.833-40.358 9.493 0 15.682 2.38 18.92 7.275 6.841 10.341.675 30.637-2.273 37.574a8.025 8.025 0 0 0 3.217 10c3.411 2.073 13.284 9.705 13.884 17.308.305 3.867-2.008 7.923-6.884 12.062a52.907 52.907 0 0 1 -6.981 4.922c-27.5 16.5-55.321 25.265-68.6 28.844l-13.764-21.273c4.524-21.993 10.454-40.944 17.648-56.354zm101.56 126.5a23.8 23.8 0 0 1 -27.742 11.084l-48.274-14.479-20.311-31.398a291.558 291.558 0 0 0 67.728-29.21c1.9-1.138 3.658-2.306 5.3-3.488 11.088 4.486 26.583 13.627 30.816 30.573 2.711 10.86.183 23.284-7.517 36.919zm280.263-172.776c-20.692-20.655-49.067-24.863-60.248-25.719-17.5-29.2-44.238-49.492-77.589-58.813a143.837 143.837 0 0 0 -47.516-5.285h-15.652a24.012 24.012 0 0 0 -23.985 23.985v255.765a24.023 24.023 0 0 0 16 22.613v137.372a8 8 0 0 0 8 8h32a8 8 0 0 0 8-8v-137a151.781 151.781 0 0 0 23.153-4.546c33.362-9.324 60.1-29.625 77.6-58.842a109.126 109.126 0 0 0 38.833-10.719c20.265-10.182 44.414-31.83 44.414-77.157 0-25.67-7.742-46.413-23.01-61.654zm-35.506 84.279 22.16-19.7 18.991 13.317a65.516 65.516 0 0 1 -11.083 27.212zm-96.956-103.225-22.8 20.261-21.728-15.057v-.248l22.594-20.337zm-9.728-26.365 18.819-16.941a110.666 110.666 0 0 1 23.36 14.462l-20.161 17.92zm84 35.827a88.828 88.828 0 0 1 30.81 9.141l-22.351 19.867-22.83-16.006zm-3.831 39.932-22.42 19.927-22.6-15.659 22.316-20.191zm-114.969 143.208 9.5 6.532-9.5 8.444zm0-56 9.5 6.533-9.5 8.448zm0-19.414v-.24l23.376-21.15 22.56 14.956-24.112 21.431zm35.622-32.469 22.138-20.03 22.48 15.575-21.934 19.5zm-35.622-60.05 9.427 6.531-9.427 8.379zm0 36.317 22.961-20.409 21.293 14.752-22.4 20.262-21.854-14.491zm56.438-16.681-21.17-14.667 22.723-20.2 20.835 14.61zm-56.438-60.876v-14.654l9.151 6.417zm0 96.868 9.614 6.373-9.614 8.694zm23.08 128.173 6.842 4.7a136.578 136.578 0 0 1 -15.182 2.709zm12.32-10.949 23.22-20.639 19.077 13.11a111.569 111.569 0 0 1 -28.531 16.994zm-13.58-9.336-21.818-15v-.2l23.086-20.521 21.947 15.082zm13.588-46.669 24.324-21.62 22.289 14.778-24.666 21.924zm36.692-32.615 21.674-19.265 21.868 15.15-21.254 18.892zm33.98-30.2 22.35-19.867 21.751 15.253-22.232 19.761zm69.852-6.094 7.024-6.244a92.612 92.612 0 0 1 1.007 11.875zm2.272-23.428-15.734 13.985-21.751-15.253 22.444-19.947a59.222 59.222 0 0 1 15.042 21.212zm-74.914-47.261-12.3 11.126-20.713-14.524 18.408-16.362a117.829 117.829 0 0 1 14.606 19.757zm-66.564-51.546-15.372 13.836-21.354-14.975v-4.355a135.7 135.7 0 0 1 35.408 5.1c.443.129.878.264 1.318.394zm-68.726 2.742a7.994 7.994 0 0 1 7.985-7.985h8.015v271.735h-8.015a7.994 7.994 0 0 1 -7.985-7.985zm32 407.75h-16v-128h16zm105.01-204.037a119.439 119.439 0 0 1 -15.516 21.859l-18.558-12.753 24.878-22.114 13.925 9.232a7.993 7.993 0 0 0 -4.729 3.776zm28.172-7.43-25-16.574 20.993-18.66 31.244 21.645a75.88 75.88 0 0 1 -27.237 13.589z" fill="url(#linear-gradient)"/></svg>