<?xml version="1.0"?>
<svg xmlns="http://www.w3.org/2000/svg" id="Glyph" viewBox="0 0 512 512" width="512" height="512"><path d="M72,480H310.369A111.987,111.987,0,0,1,400,276.666V128H344a40.045,40.045,0,0,1-40-40V32H72A24.028,24.028,0,0,0,48,56V456A24.028,24.028,0,0,0,72,480Zm144-64H184a8,8,0,0,1,0-16h32a8,8,0,0,1,0,16Zm0-48H168a8,8,0,0,1,0-16h48a8,8,0,0,1,0,16Zm64-96H216a8,8,0,0,1,0-16h64a8,8,0,0,1,0,16Zm80-48H280a8,8,0,0,1,0-16h80a8,8,0,0,1,0,16Zm0-64a8,8,0,0,1,0,16H168a8,8,0,0,1,0-16ZM88,112h96a8,8,0,0,1,0,16H88a8,8,0,0,1,0-16Zm0,48h48a8,8,0,0,1,0,16H88a8,8,0,0,1,0-16Zm0,48H248a8,8,0,0,1,0,16H88a8,8,0,0,1,0-16Zm0,48h96a8,8,0,0,1,0,16H88a8,8,0,0,1,0-16Zm0,48H232a8,8,0,0,1,0,16H88a8,8,0,0,1,0-16Zm0,48h48a8,8,0,0,1,0,16H88a8,8,0,0,1,0-16Zm0,48h64a8,8,0,0,1,0,16H88a8,8,0,0,1,0-16ZM320,88V43.313L388.687,112H344A24.027,24.027,0,0,1,320,88ZM272,384a96,96,0,1,0,96-96A96.108,96.108,0,0,0,272,384Zm104-56v48h48a8,8,0,0,1,0,16H376v48a8,8,0,0,1-16,0V392H312a8,8,0,0,1,0-16h48V328a8,8,0,0,1,16,0Z"/></svg>
