<svg id="Capa_1" enable-background="new 0 0 509.848 509.848" height="512" viewBox="0 0 509.848 509.848" width="512" xmlns="http://www.w3.org/2000/svg"><g><path d="m328.961 137.062c-1.08 41.552-13.948 81.065-36.987 114.693 78.477-15.751 138.924-81.991 145.865-163.269-40.741 3.457-78.756 20.371-108.878 48.576z"/><path d="m362.676 78.153c-.801-15.445-3.562-30.642-8.261-45.412-13.738 7.107-26.411 15.877-37.88 26.204 4.73 13.182 8.158 26.863 10.215 40.885 11.302-8.45 23.328-15.7 35.926-21.677z"/><ellipse cx="256.004" cy="131.352" rx="43.035" ry="118.192"/><path d="m195.474 58.945c-11.468-10.327-24.142-19.098-37.881-26.205-4.699 14.771-7.46 29.967-8.26 45.412 12.597 5.977 24.624 13.228 35.927 21.677 2.056-14.021 5.484-27.702 10.214-40.884z"/><path d="m220.034 251.755c-23.04-33.628-35.907-73.14-36.987-114.692-30.122-28.206-68.137-45.12-108.877-48.577 6.941 81.278 67.387 147.518 145.864 163.269z"/><path d="m326.714 458.1c-24.338 0-44.923 16.32-51.423 38.587h183.138c24.333 0 44.915-16.313 51.419-38.573z"/><path d="m509.847 428.114c-6.505-22.258-27.087-38.57-51.418-38.57h-218.659c-61.723.613-112.631 47.234-119.992 107.143h124.737c7.084-38.952 41.235-68.587 82.2-68.587z"/><path d="m150.37 389.544h-96.799c-29.539 0-53.571 24.033-53.571 53.572s24.032 53.571 53.571 53.571h36.024c4.302-43.795 27.248-82.197 60.775-107.143z"/><path d="m318.998 359.544c-7.141-41.321-43.236-72.852-86.56-72.852v-.005h-107.15c-9.731 0-18.88 3.789-25.761 10.668-6.88 6.879-10.669 16.026-10.669 25.755 0 20.084 16.343 36.424 36.43 36.424v.01z"/><path d="m386.713 359.544v-.01c20.087 0 36.43-16.34 36.43-36.424s-16.343-36.423-36.43-36.423h-75.822c20.638 18.451 34.765 44.042 38.443 72.857z"/></g></svg>