<svg id="Capa_1" enable-background="new 0 0 511.667 511.667" height="512" viewBox="0 0 511.667 511.667" width="512" xmlns="http://www.w3.org/2000/svg"><g id="XMLID_1536_"><g id="XMLID_84_"><path id="XMLID_80_" d="m501.667 416.833h-16.667v-38c0-5.522-4.477-10-10-10h-41.63c25.673-36.417 39.63-80.076 39.63-125 0-57.963-22.572-112.456-63.559-153.442-40.984-40.985-95.479-63.558-153.441-63.558-57.963 0-112.456 22.572-153.442 63.558s-63.558 95.479-63.558 153.442c0 44.925 13.957 88.583 39.63 125h-41.63c-5.523 0-10 4.478-10 10v38h-17c-5.523 0-10 4.478-10 10v48c0 5.522 4.477 10 10 10h491.667c5.522 0 10-4.478 10-10v-48c0-5.522-4.478-10-10-10zm-93.405-48h-7.925l-34.833-60.333h69.282l4.436 7.684c-7.473 18.934-17.875 36.723-30.96 52.649zm-179.632-137.406h54.74l-27.37 47.407zm9.857 57.073h-57.351l28.675-49.667zm63.701-49.667 28.675 49.667h-57.351zm18.818-7.406h54.741l-27.37 47.407zm73.559 7.406 28.675 49.667h-57.351zm-76.554-27.406 30.365-52.594 30.365 52.594zm-15.823-12.594-28.29-49h56.58zm-15.822 12.594h-60.73l30.364-52.594zm-76.554-12.593-28.29-49.001h56.581zm-15.823 12.593h-60.73l30.365-52.594zm-57.735 20h54.741l-27.37 47.407zm9.857 57.073h-57.351l28.675-49.667zm46.381 80.333h-57.735l28.867-50zm-11.74-60.333h58.12l-29.06 50.333zm75.248 10.333 28.868 50h-57.735zm17.128-10.333h58.12l-29.06 50.333zm75.248 10.333 28.868 50h-57.735zm104.624-75c0 15.793-1.901 31.414-5.581 46.547l-34.037-58.954h39.216c.257 4.105.402 8.239.402 12.407zm-2.68-32.406h-39.933l26.422-45.765c6.27 14.446 10.855 29.783 13.511 45.765zm-55.755-12.593-28.29-49.001h56.581zm22.016-69.001h-51.462l20.009-34.657c11.796 10.261 22.367 21.896 31.453 34.657zm-101.201-73.847c19.417 6.151 37.54 15.235 53.849 26.73l-20.852 36.117-34.641-60zm16.253 73.847h-58.89l29.445-51zm-104.576-80.868c9.449-1.397 19.112-2.131 28.943-2.131 13.452 0 26.593 1.359 39.295 3.941l-39.295 68.058-34.641-60.001zm12.2 80.868h-58.89l29.445-51.001zm-38.648-75.06-36.986 64.061-20.852-36.117c17.421-12.28 36.913-21.803 57.838-27.944zm-73.737 40.404 20.009 34.656h-51.462c9.087-12.761 19.657-24.396 31.453-34.656zm18.854 54.656-28.29 49-28.29-49zm-70.535 15.829 26.422 45.765h-39.933c2.657-15.982 7.241-31.319 13.511-45.765zm-16.191 78.171c0-4.168.146-8.302.403-12.406h39.215l-34.037 58.954c-3.68-15.134-5.581-30.755-5.581-46.548zm13.777 72.351 4.436-7.684h69.283l-34.833 60.333h-7.924c-13.086-15.926-23.487-33.715-30.962-52.649zm418.89 148.649h-471.667v-28h191.127c5.523 0 10-4.478 10-10s-4.477-10-10-10h-164.127v-28h418v28h-163.873c-5.522 0-10 4.478-10 10s4.478 10 10 10h190.539v28z"/><path id="XMLID_727_" d="m256.124 416.833c-2.63 0-5.21 1.069-7.07 2.93-1.86 1.86-2.93 4.44-2.93 7.07s1.07 5.21 2.93 7.069c1.86 1.86 4.44 2.931 7.07 2.931 2.64 0 5.22-1.07 7.069-2.931 1.87-1.859 2.931-4.439 2.931-7.069s-1.061-5.21-2.931-7.07c-1.85-1.86-4.43-2.93-7.069-2.93z"/></g></g></svg>